<?xml version="1.0" encoding="iso-8859-1"?>
<!-- Generator: Adobe Illustrator 18.1.1, SVG Export Plug-In . SVG Version: 6.00 Build 0)  -->
<svg version="1.1" id="Capa_1" xmlns="http://www.w3.org/2000/svg" xmlns:xlink="http://www.w3.org/1999/xlink" x="0px" y="0px"
	 viewBox="0 0 543.906 543.906" style="enable-background:new 0 0 543.906 543.906;" xml:space="preserve">
<g>
	<path style="fill:#010002;" d="M82.163,0C36.806,0,0,36.806,0,82.163v379.576c0,45.362,36.806,82.168,82.163,82.168h379.647
		c45.367,0,82.097-36.806,82.097-82.163V82.163C543.906,36.806,507.171,0,461.809,0H82.163z M148.563,67.7
		c27.951,0,45.182,18.4,45.71,42.528c0,23.606-17.802,42.457-46.292,42.457h-0.506c-27.44,0-45.204-18.852-45.204-42.457
		C102.271,86.1,120.584,67.7,148.563,67.7L148.563,67.7z M389.562,180.528c53.792,0,94.096,35.115,94.096,110.663v141.046h-81.733
		V300.666c0-33.059-11.857-55.62-41.446-55.62c-22.578,0-35.979,15.175-41.875,29.871c-2.159,5.254-2.747,12.608-2.747,19.961
		v137.358h-81.733c0,0,1.082-222.844,0-245.916h81.733v34.864C326.708,204.416,346.137,180.528,389.562,180.528z M107.117,186.315
		h81.727v245.916h-81.727V186.315z"/>
</g>
<g>
</g>
<g>
</g>
<g>
</g>
<g>
</g>
<g>
</g>
<g>
</g>
<g>
</g>
<g>
</g>
<g>
</g>
<g>
</g>
<g>
</g>
<g>
</g>
<g>
</g>
<g>
</g>
<g>
</g>
</svg>
